<svg width="130" height="57" viewBox="0 0 130 57" fill="none" xmlns="http://www.w3.org/2000/svg">
<path d="M9.01196 32.9378H4.40052L3.5952 35.5455H0L5.11956 21.5866H8.28333L13.4412 35.5455H9.82687L9.01196 32.9378ZM5.20584 30.3397H8.20663L6.70145 25.4982L5.20584 30.3397Z" fill="#656980"/>
<path d="M25.5499 30.819C25.5051 31.7906 25.2431 32.6502 24.7637 33.398C24.2844 34.1394 23.6101 34.7146 22.7408 35.1237C21.878 35.5328 20.8905 35.7373 19.7784 35.7373C17.944 35.7373 16.4996 35.1397 15.445 33.9445C14.3904 32.7493 13.8631 31.0619 13.8631 28.8824V28.1922C13.8631 26.8244 14.0996 25.6292 14.5725 24.6065C15.0519 23.5775 15.739 22.785 16.6338 22.2289C17.5286 21.6665 18.564 21.3853 19.74 21.3853C21.4338 21.3853 22.7951 21.8327 23.8242 22.7275C24.8532 23.6159 25.438 24.843 25.5786 26.4089H22.2231C22.1975 25.5589 21.9834 24.9485 21.5808 24.5778C21.1781 24.2071 20.5645 24.0217 19.74 24.0217C18.9027 24.0217 18.2892 24.3349 17.8993 24.9613C17.5094 25.5876 17.3049 26.5879 17.2857 27.9621V28.9495C17.2857 30.4388 17.4711 31.5029 17.8418 32.1421C18.2189 32.7812 18.8644 33.1008 19.7784 33.1008C20.5517 33.1008 21.143 32.9186 21.552 32.5543C21.9611 32.19 22.1784 31.6116 22.2039 30.819H25.5499Z" fill="#656980"/>
<path d="M37.8119 24.1847H33.6223V35.5455H30.2572V24.1847H26.1443V21.5866H37.8119V24.1847Z" fill="#656980"/>
<path d="M42.826 35.5455H39.4705V21.5866H42.826V35.5455Z" fill="#656980"/>
<path d="M50.582 31.749L53.3623 21.5866H57.1205L52.4228 35.5455H48.7413L44.0819 21.5866H47.8113L50.582 31.749Z" fill="#656980"/>
<path d="M66.8035 29.6302H61.5114V32.957H67.7623V35.5455H58.1463V21.5866H67.7814V24.1847H61.5114V27.128H66.8035V29.6302Z" fill="#656980"/>
<path d="M69.4761 35.5359V21.577H73.148C74.65 21.577 75.7844 21.8838 76.5514 22.4974C77.3248 23.1046 77.7115 23.9898 77.7115 25.153C77.7115 25.9967 77.4974 26.6966 77.0691 27.2526C76.6409 27.8087 76.0369 28.1634 75.2571 28.3168C76.1392 28.4318 76.8742 28.8153 77.4622 29.4673C78.0502 30.1128 78.3442 30.8542 78.3442 31.6915C78.3442 32.8803 77.9575 33.8198 77.1842 34.5101C76.4172 35.194 75.3466 35.5359 73.9725 35.5359H69.4761ZM69.9938 28.6428V35.0182H74.03C75.2124 35.0182 76.1392 34.7274 76.8103 34.1458C77.4878 33.5578 77.8265 32.7461 77.8265 31.7107C77.8265 30.8286 77.5006 30.1032 76.8486 29.5344C76.1967 28.9591 75.3243 28.6619 74.2313 28.6428H69.9938ZM69.9938 28.125H73.3397C74.6116 28.125 75.5703 27.8822 76.2159 27.3964C76.8614 26.9043 77.1842 26.1437 77.1842 25.1147C77.1842 23.1333 75.8771 22.1267 73.263 22.0947H69.9938V28.125Z" fill="white"/>
<path d="M91.2102 29.6015C91.2102 30.8095 90.9929 31.88 90.5583 32.8132C90.1301 33.7399 89.5165 34.459 88.7176 34.9703C87.9186 35.4752 86.9983 35.7277 85.9565 35.7277C84.3842 35.7277 83.1123 35.1684 82.1408 34.0499C81.1692 32.9314 80.6835 31.423 80.6835 29.5248V27.5115C80.6835 26.3099 80.8976 25.2425 81.3258 24.3093C81.7605 23.3762 82.3772 22.6572 83.1762 22.1522C83.9815 21.6409 84.9019 21.3853 85.9373 21.3853C86.9791 21.3853 87.8995 21.6409 88.6984 22.1522C89.5037 22.6572 90.1237 23.3794 90.5583 24.3189C90.9929 25.2521 91.2102 26.3163 91.2102 27.5115V29.6015ZM90.6925 27.4923C90.6925 25.8049 90.2643 24.4532 89.4078 23.4369C88.5514 22.4143 87.3945 21.903 85.9373 21.903C84.4992 21.903 83.3519 22.4111 82.4955 23.4273C81.639 24.4372 81.2108 25.8145 81.2108 27.5594V29.6015C81.2108 30.7136 81.4025 31.6979 81.786 32.5543C82.1759 33.4044 82.7288 34.0595 83.4446 34.5197C84.1605 34.9799 84.9977 35.21 85.9565 35.21C87.4137 35.21 88.5674 34.7019 89.4174 33.6856C90.2675 32.6694 90.6925 31.2824 90.6925 29.5248V27.4923Z" fill="white"/>
<path d="M98.1322 28.01L102.638 21.577H103.29L98.4581 28.4127L103.472 35.5359H102.83L98.1322 28.8153L93.4153 35.5359H92.7921L97.8062 28.4127L92.9743 21.577H93.6262L98.1322 28.01Z" fill="white"/>
</svg>
