<svg width="130" height="57" fill="none" xmlns="http://www.w3.org/2000/svg"><path d="M9.012 32.938H4.401l-.806 2.607H0l5.12-13.958h3.163l5.158 13.958H9.827l-.815-2.607ZM5.206 30.34h3l-1.505-4.842-1.495 4.842ZM25.55 30.819c-.045.972-.307 1.831-.786 2.579-.48.741-1.154 1.317-2.023 1.726-.863.409-1.85.613-2.963.613-1.834 0-3.278-.597-4.333-1.793-1.055-1.195-1.582-2.882-1.582-5.062v-.69c0-1.368.237-2.563.71-3.585.479-1.03 1.166-1.822 2.06-2.378.896-.563 1.931-.844 3.107-.844 1.694 0 3.055.448 4.084 1.342 1.03.889 1.614 2.116 1.755 3.682h-3.356c-.025-.85-.24-1.46-.642-1.831-.403-.37-1.017-.556-1.841-.556-.837 0-1.45.313-1.84.94-.39.626-.595 1.626-.614 3v.988c0 1.489.185 2.553.556 3.192.377.64 1.022.959 1.936.959.774 0 1.365-.182 1.774-.547.41-.364.626-.942.652-1.735h3.346ZM37.812 24.185h-4.19v11.36h-3.365v-11.36h-4.113v-2.598h11.668v2.598ZM42.826 35.545h-3.355V21.587h3.355v13.958ZM50.582 31.749l2.78-10.162h3.758l-4.697 13.958H48.74l-4.66-13.958h3.73l2.771 10.162ZM66.803 29.63h-5.292v3.327h6.251v2.588h-9.616V21.587h9.635v2.598h-6.27v2.943h5.292v2.502Z" fill="#656980"/><path d="M69.476 35.536V21.577h3.672c1.502 0 2.636.307 3.403.92.774.608 1.16 1.493 1.16 2.656 0 .844-.214 1.544-.642 2.1-.428.556-1.032.91-1.812 1.064a3.483 3.483 0 0 1 2.205 1.15c.588.646.882 1.387.882 2.225 0 1.188-.386 2.128-1.16 2.818-.767.684-1.837 1.026-3.212 1.026h-4.496Zm.518-6.893v6.375h4.036c1.182 0 2.11-.29 2.78-.872.678-.588 1.016-1.4 1.016-2.435 0-.882-.325-1.608-.977-2.177-.652-.575-1.525-.872-2.618-.891h-4.237Zm0-.518h3.346c1.272 0 2.23-.243 2.876-.729.645-.492.968-1.252.968-2.281 0-1.982-1.307-2.988-3.921-3.02h-3.27v6.03ZM91.21 29.602c0 1.207-.217 2.278-.652 3.211-.428.927-1.042 1.646-1.84 2.157-.8.505-1.72.758-2.761.758-1.573 0-2.845-.56-3.816-1.678-.972-1.119-1.458-2.627-1.458-4.525v-2.013c0-1.202.215-2.27.643-3.203.434-.933 1.051-1.652 1.85-2.157.805-.511 1.726-.767 2.761-.767 1.042 0 1.963.256 2.761.767.806.505 1.426 1.227 1.86 2.167.435.933.652 1.997.652 3.193v2.09Zm-.517-2.11c0-1.687-.429-3.039-1.285-4.055-.857-1.023-2.014-1.534-3.47-1.534-1.439 0-2.586.508-3.442 1.524-.857 1.01-1.285 2.387-1.285 4.132v2.043c0 1.112.192 2.096.575 2.952.39.85.943 1.505 1.659 1.966.716.46 1.553.69 2.512.69 1.457 0 2.61-.508 3.46-1.524.85-1.017 1.275-2.404 1.275-4.161v-2.033ZM98.132 28.01l4.506-6.433h.652l-4.832 6.836 5.014 7.123h-.642l-4.698-6.72-4.717 6.72h-.623l5.014-7.123-4.832-6.836h.652l4.506 6.433Z" fill="#fff"/></svg>